<svg xmlns="http://www.w3.org/2000/svg" xmlns:xlink="http://www.w3.org/1999/xlink" width="500" zoomAndPan="magnify" viewBox="0 0 375 374.999991" height="500" preserveAspectRatio="xMidYMid meet" version="1.0"><defs><g/></defs><rect x="-37.5" width="450" fill="#caf0f8" y="-37.499999" height="449.999989" fill-opacity="1"/><rect x="-37.5" width="450" fill="#ffffff" y="-37.499999" height="449.999989" fill-opacity="1"/><g fill="#0077B6" fill-opacity="1"><g transform="translate(37.500002, 222.851739)"><g><path d="M 4.941406 -68.003906 L 4.84375 -31.191406 C 7.945312 -31.289062 12.304688 -31.289062 18.117188 -31.191406 C 23.929688 -31.191406 27.800781 -31.097656 29.644531 -31.097656 L 31.582031 -31.097656 C 32.550781 -31.191406 33.128906 -31.289062 33.421875 -31.191406 C 33.808594 -31.191406 34.292969 -31.191406 34.972656 -31.097656 C 35.746094 -31.097656 36.132812 -31 36.425781 -30.902344 C 36.8125 -30.902344 37.101562 -30.804688 37.585938 -30.613281 C 38.167969 -30.515625 38.457031 -30.320312 38.847656 -30.128906 C 39.234375 -29.933594 39.621094 -29.738281 39.910156 -29.351562 C 42.332031 -27.414062 43.496094 -24.21875 43.496094 -19.957031 C 43.496094 -15.789062 42.332031 -12.691406 39.910156 -10.558594 C 37.585938 -8.621094 33.90625 -7.554688 28.964844 -7.554688 L 14.144531 -7.554688 L 14.144531 -23.445312 L 4.941406 -23.445312 L 4.941406 0.0976562 L 29.351562 0.0976562 C 37.003906 0.0976562 42.914062 -1.550781 46.984375 -4.84375 C 51.148438 -8.234375 53.183594 -12.980469 53.183594 -18.988281 C 53.183594 -23.152344 52.601562 -26.542969 51.441406 -29.160156 C 50.375 -31.871094 48.535156 -34.292969 46.015625 -36.617188 C 47.855469 -38.847656 48.921875 -40.976562 49.503906 -43.109375 C 50.082031 -45.238281 50.375 -47.953125 50.375 -51.148438 C 50.375 -56.574219 48.628906 -60.738281 44.753906 -63.644531 C 40.976562 -66.550781 35.550781 -68.003906 28.480469 -68.003906 Z M 14.144531 -60.449219 L 27.800781 -60.449219 C 32.257812 -60.449219 35.648438 -59.675781 37.78125 -57.929688 C 40.105469 -56.1875 41.171875 -53.667969 41.171875 -50.179688 C 41.171875 -46.691406 40.105469 -44.175781 37.78125 -42.429688 C 35.648438 -40.785156 32.257812 -39.910156 27.800781 -39.910156 L 14.144531 -39.910156 Z M 14.144531 -60.449219 "/></g></g></g><g fill="#0077B6" fill-opacity="1"><g transform="translate(95.51883, 222.851739)"><g><path d="M 4.84375 -68.003906 L 28.867188 -32.453125 L 38.167969 -32.453125 L 62.191406 -68.003906 L 52.3125 -68.003906 L 33.613281 -40.007812 L 14.726562 -68.003906 Z M 28.867188 -23.152344 L 28.867188 0 L 38.167969 0 L 38.167969 -23.152344 Z M 28.867188 -23.152344 "/></g></g></g><g fill="#0077B6" fill-opacity="1"><g transform="translate(162.545594, 222.851739)"><g><path d="M 4.941406 -68.003906 L 4.84375 -31.191406 C 7.945312 -31.289062 12.304688 -31.289062 18.117188 -31.191406 C 23.929688 -31.191406 27.800781 -31.097656 29.644531 -31.097656 L 31.582031 -31.097656 C 32.550781 -31.191406 33.128906 -31.289062 33.421875 -31.191406 C 33.808594 -31.191406 34.292969 -31.191406 34.972656 -31.097656 C 35.746094 -31.097656 36.132812 -31 36.425781 -30.902344 C 36.8125 -30.902344 37.101562 -30.804688 37.585938 -30.613281 C 38.167969 -30.515625 38.457031 -30.320312 38.847656 -30.128906 C 39.234375 -29.933594 39.621094 -29.738281 39.910156 -29.351562 C 42.332031 -27.414062 43.496094 -24.21875 43.496094 -19.957031 C 43.496094 -15.789062 42.332031 -12.691406 39.910156 -10.558594 C 37.585938 -8.621094 33.90625 -7.554688 28.964844 -7.554688 L 14.144531 -7.554688 L 14.144531 -23.445312 L 4.941406 -23.445312 L 4.941406 0.0976562 L 29.351562 0.0976562 C 37.003906 0.0976562 42.914062 -1.550781 46.984375 -4.84375 C 51.148438 -8.234375 53.183594 -12.980469 53.183594 -18.988281 C 53.183594 -23.152344 52.601562 -26.542969 51.441406 -29.160156 C 50.375 -31.871094 48.535156 -34.292969 46.015625 -36.617188 C 47.855469 -38.847656 48.921875 -40.976562 49.503906 -43.109375 C 50.082031 -45.238281 50.375 -47.953125 50.375 -51.148438 C 50.375 -56.574219 48.628906 -60.738281 44.753906 -63.644531 C 40.976562 -66.550781 35.550781 -68.003906 28.480469 -68.003906 Z M 14.144531 -60.449219 L 27.800781 -60.449219 C 32.257812 -60.449219 35.648438 -59.675781 37.78125 -57.929688 C 40.105469 -56.1875 41.171875 -53.667969 41.171875 -50.179688 C 41.171875 -46.691406 40.105469 -44.175781 37.78125 -42.429688 C 35.648438 -40.785156 32.257812 -39.910156 27.800781 -39.910156 L 14.144531 -39.910156 Z M 14.144531 -60.449219 "/></g></g></g><g fill="#0077B6" fill-opacity="1"><g transform="translate(220.564423, 222.851739)"><g><path d="M 47.660156 -67.910156 L 47.660156 -27.222656 C 47.660156 -20.828125 46.402344 -16.082031 43.691406 -12.882812 C 41.753906 -10.65625 39.039062 -9.203125 35.359375 -8.523438 L 35.359375 0.0976562 C 41.753906 -0.582031 46.789062 -2.710938 50.375 -6.394531 C 54.832031 -10.851562 56.960938 -17.4375 56.960938 -26.15625 L 56.960938 -67.910156 Z M 4.84375 -67.910156 L 4.84375 -26.15625 C 4.84375 -17.4375 7.070312 -10.851562 11.429688 -6.394531 C 14.917969 -2.90625 19.859375 -0.773438 26.058594 0 L 26.058594 -8.621094 C 22.570312 -9.300781 19.957031 -10.753906 18.019531 -12.882812 C 15.5 -16.082031 14.144531 -20.828125 14.144531 -27.222656 L 14.144531 -67.910156 Z M 4.84375 -67.910156 "/></g></g></g><g fill="#0077B6" fill-opacity="1"><g transform="translate(282.263919, 222.851739)"><g><path d="M 32.550781 -38.363281 L 32.550781 -29.253906 C 34.875 -28.480469 36.910156 -27.222656 38.554688 -25.574219 C 40.6875 -22.960938 41.460938 -20.34375 40.878906 -17.632812 C 40.394531 -14.917969 38.941406 -12.882812 36.425781 -11.429688 C 34.292969 -10.460938 31.96875 -9.785156 29.0625 -9.398438 C 26.253906 -9.105469 23.929688 -9.007812 21.894531 -9.105469 C 19.957031 -9.300781 17.148438 -9.398438 13.464844 -9.785156 C 9.882812 -10.171875 7.265625 -10.460938 5.714844 -10.558594 L 5.132812 -1.453125 C 6.878906 -1.453125 9.882812 -1.257812 14.335938 -0.871094 C 18.890625 -0.484375 22.476562 -0.386719 25.089844 -0.195312 C 27.800781 -0.0976562 30.804688 -0.289062 34.292969 -0.871094 C 37.878906 -1.453125 40.878906 -2.519531 43.207031 -3.972656 C 47.855469 -6.976562 50.375 -11.625 50.761719 -17.824219 C 51.148438 -23.25 49.792969 -27.511719 46.691406 -30.804688 C 43.785156 -34.097656 39.039062 -36.617188 32.550781 -38.363281 Z M 12.109375 -63.9375 C 7.652344 -60.933594 5.230469 -56.574219 4.84375 -50.761719 C 4.648438 -45.820312 5.910156 -41.847656 8.71875 -38.75 C 11.429688 -36.035156 16.371094 -33.710938 23.347656 -31.773438 L 23.347656 -40.785156 C 21.601562 -40.976562 19.957031 -41.65625 18.601562 -42.816406 C 17.242188 -44.078125 16.371094 -45.433594 15.789062 -46.886719 C 15.210938 -48.4375 15.015625 -49.890625 15.304688 -51.441406 C 15.695312 -53.085938 16.46875 -54.441406 17.632812 -55.410156 C 18.988281 -56.378906 20.539062 -57.15625 22.570312 -57.640625 C 24.703125 -58.222656 27.027344 -58.511719 29.644531 -58.511719 C 32.355469 -58.609375 34.582031 -58.609375 36.425781 -58.511719 C 38.363281 -58.511719 40.589844 -58.316406 43.300781 -58.027344 C 46.015625 -57.832031 47.660156 -57.640625 48.050781 -57.542969 L 48.628906 -66.648438 L 41.558594 -67.132812 C 38.363281 -67.425781 35.648438 -67.617188 33.421875 -67.714844 C 31.289062 -67.910156 28.769531 -68.003906 25.960938 -67.8125 C 23.25 -67.714844 20.632812 -67.425781 18.308594 -66.746094 C 15.984375 -66.164062 13.949219 -65.195312 12.109375 -63.9375 Z M 12.109375 -63.9375 "/></g></g></g></svg>